<?xml version="1.0" encoding="UTF-8"?>
<svg id="Layer_2" data-name="Layer 2" xmlns="http://www.w3.org/2000/svg" viewBox="0 0 171.65 171.65">
  <defs>
    <style>
      .cls-1 {
        fill: #fff;
      }

      .cls-2 {
        fill: #222;
      }
    </style>
  </defs>
  <g id="bool_variants" data-name="bool variants">
    <g id="detail_transparent_black_on_white" data-name="detail transparent black on white">
      <path class="cls-1" d="M108.46,165.74c-.03-.33-.03-1.18,.2-1.77s1.38-2.69,1.81-4.76c.43-2.07,2.7-11.7,2.18-14.13-.44-2.04-.72-2.86-.8-3.06-.01-.04-.04-.06-.08-.07-.47-.07-3.75-.6-5.79-1.63-1.79-.91-3.62-1.88-4.24-2.21-.09-.05-.19,.03-.16,.13,.17,.63,.69,2.31,1.48,2.68,.98,.46,1.54,.1,1.86,.61,.34,.54,.11,1.52-.81,3.16-.81,1.45-7.89,13.72-9,15.96-1.02,2.04-1.33,2.4-1.28,2.92,.05,.57,.17,.82,.02,1.26-.15,.42-.48,.38-.84,.94-.36,.56-.43,1.38-.39,1.77,.03,.39-.22,1.66-.76,3.25-.09,.26-.21,.48-.34,.66,5.03-.33,9.93-1.09,14.69-2.24,.35-.43,.68-.84,.92-1.16,1.05-1.41,1.38-1.97,1.35-2.3Z"/>
      <path class="cls-1" d="M89.22,167.21c.39-.62,.59-1.15,.59-2s.53-2.07,1.05-2.82c.53-.76,6.48-15.07,7.17-17.08,.69-2-.89-4.23-2.2-4.99-1.31-.76-5.32-2.36-6.7-2.46-1.38-.1-1.71-1.08-1.94-2.43-.23-1.35-1.15-5.75-1.08-7.62,.04-1.15,.07-1.66,.08-1.88,0-.08-.07-.14-.14-.11-.76,.23-4.13,1.21-5.49,1.56-1.32,.34-2.26,.46-2.5,.49-.04,0-.07,.03-.08,.07-.2,.55-1.7,6.51-1.92,7.7-.23,1.28,.39,3.02,.26,3.58-.13,.56-.16,1.08-.66,1.81-.49,.72-.26,1.51-.33,2.23s-1.48,14.24-1.48,15.65-.03,3.95,.1,4.86c.13,.88,.16,1.33-.23,1.69-.39,.36-.73,.35-.79,1.23-.06,.97,.03,1.58-.1,1.94-.08,.22-.46,1.19-.83,1.91,4.5,.73,9.1,1.12,13.8,1.12,.22,0,.43-.01,.65-.02,0-.02,0-.05,.02-.07,.64-1.02,2.4-3.85,2.72-4.36Z"/>
      <path class="cls-1" d="M171.65,85.83C171.65,38.43,133.23,0,85.83,0S0,38.43,0,85.83c0,41.33,29.22,75.84,68.13,83.99,.87-1.28,1.98-2.93,2.12-3.17,.23-.39-.03-1.18,.13-1.67,.16-.49,.62-1.61,.62-2.07,0,1.23,.29-26.1-.16-30.9-.3-3.12-.33-3.44-.35-3.96-.02-.58-.71-.1-2.84-.16-1.78-.04-2.62-.19-3.53-.43-.27-.07,.11,.49-2.45,4.02-1.04,1.43-3.78,3.71-6.01,4.73-1.58,.72-2.04,1.21-1.81,1.87,.23,.66,3.24,6.19,4.06,7.17,.82,.98,1.34,1.51,1.58,1.72,.43,.37,.94,.41,1.44,.89,.54,.53,.52,.91,.49,1.23-.02,.27-.12,.99,1.24,1.01,1.12,.01,2.64,1.39,2.8,1.65,.31,.53,.95,2.89,1.13,3.58,.02,.07-.06,.13-.12,.09-.75-.43-3.77-2.14-4.03-2.33-.53-.4-1.27-.82-2.18-1.32-.79-.43-2.09-1.18-2.49-1.67-.39-.49-3.7-5.93-4.36-6.92-.66-.98-2.94-4.48-3.6-5.53-.66-1.05,1.77-4.64,3.05-7,1.28-2.36,2.8-5.37,3.09-6.56,.24-.97,.22-1.43,.2-1.57,0-.03-.02-.05-.04-.07-.29-.23-2.59-2.14-3.45-4.93-.92-2.99-2.64-12.08-1.17-18.98,1.48-6.89,5.34-14.62,7.93-17.63,2.36-2.75,3.58-3.39,3.86-3.86,.33-.58-.21-1.49-1.24-1.3-1.03,.2-2.26-.01-3.03-.14-2.4-.38-3.2-2.41-4.09-3.84-.68-1.09-1.18-2.21-1.37-2.67-.04-.09,.05-.18,.14-.15,.77,.24,3.3,.98,4.74,.69,1.72-.34,2.5,.11,3.44,1.15,.89,.99,1.57,2.1,2.35,3.09,.81,1.03,.9-.38,.9-.68,0-.76,.07-1-.67-1.98s-2.41-2.76-4.83-3-4.53-.5-5.56-1.87c-1.06-1.4-.89-1.77-2.51-2.76-1.63-.98-4.73-2.86-6.25-6.8s-1.67-8.03-.94-9.85,3.25-6.11,3.25-8.37c0-1.97-.34-2.82-.33-3.53,0-.11,.14-.16,.2-.07,.71,1.03,3.33,5.14,2.42,8.39-1.05,3.74-2.44,6.04-1.2,9.55,1.23,3.51,3.01,5.32,3.5,5.61l.37,.22c.06,.04,.15,0,.17-.06,.23-.79,1.28-4.77,1.24-6.69-.08-3.79-.72-6.53-.92-6.99-.2-.46,3.71,2.04,3.97,5.94,.26,3.91-1.02,8.77,.46,10.37,.73,.8,4.23,2.12,5.09,2.43,.08,.03,.16-.04,.14-.12-.11-.52-.33-1.98,.24-3.18,.46-.98,.78-1.32,1.08-1.7,.15-.19,.8-1,1.05-1.31,.03-.03,.08-.01,.08,.03-.08,.49-.31,1.99-.34,2.87-.07,1.87,.01,4.01,.64,4.46,1.07,.77,6.53,3.05,7.05,3.27,.03,.01,.05,.01,.08,0l3.08-1.12s.03-.02,.04-.03c.47-.38,1.41-1.2,1.72-4.05,.23-2.12,.09-3.29,.02-3.65,0-.04,.04-.07,.07-.04,.34,.3,1.42,1.38,1.71,2.68,.32,1.46,.2,2.5,.02,3.49-.01,.07,.06,.14,.13,.12,.48-.11,1.92-.46,2.24-.79,.39-.39,1.58-2.69,1.74-4.33,.16-1.64,.16-4.14-1.18-7.52-1.35-3.38,2.67-8.68,3.41-9.29,.33-.27,.49-.43,.72-.76,.05-.07,.05,.23-.01,.41-.55,1.63-1.66,3.2-.68,6.61,.98,3.41,1.94,5.45,2,7.29,.04,1.07,.03,1.75,.02,2.13,0,.11,.14,.16,.2,.06,.57-.87,2.05-3.41,2.6-6.86,.47-2.94,.03-4.76-.98-7.52-1.02-2.76-1.12-4.63-.26-6.37,.54-1.1,.94-1.75,1.17-2.08,.06-.09,.2-.05,.21,.06,.02,1.25,.28,5.65,2.6,8.52,2.72,3.38,1.38,9.75,.49,12.41-.89,2.66-1.05,3.71-3.81,6.14-1.35,1.19-2.11,1.3-2.72,1.72-.36,.25-.33,2.25-2.66,3.04-2.33,.79-4.01,.79-5.06,.85-1.05,.07-.72,.95-2.95,1.54-2.23,.59-4.56,1.25-1.94,2.69,2.63,1.44,8.44,8.86,9,9.72,.54,.83-.19,1.66-.23,1.71,0,0,0,0,0,0-.06,.05-1.41,1.05-2.89,.92-1.51-.13-8.63-2.27-10.18-2.5-1.54-.23-2.33,1.83-2.63,2.72-.67,2.01-1.77,5.88-1.94,8.27-.16,2.4,1.31,4.83,3.25,5.02s3.38,.2,4.4,.36c1.02,.16,3.51,.56,4.17,.59,.66,.03,4.66,.07,6.24,.26,1.58,.2,5.48,.95,7.35,1.44,1.87,.49,2.43,.82,3.76,.82s3.07-.62,4.48-.79c1.41-.16,3.68-.43,6.81,.06,3.42,.54,4.24,.88,5.44,1.79,.66,.5,1.24,1.5,1.41,1.83,.03,.06,.1,.07,.15,.04,.49-.31,2.71-1.69,4.56-2,2.1-.36,5.91-.46,7.78-.49,1.16-.02,1.76-.04,2.04-.05,.09,0,.15,.1,.1,.18-.61,.86-3.15,4.4-4.3,5.06-1.31,.76-1.97,1.35-5.58,.53-3.61-.82-3.25,.07-3.25,.07,0,0,1.64,3.61,.92,7.32s-2.23,6.34-4.99,8.83c-2.76,2.5-2.3,4.2-2.3,4.2,0,0,.33,2.4,2.13,3.87,1.81,1.48,4.23,3.55,4.79,3.78s1.25,.62,2.07,.56c.82-.07,1.37-.13,1.56,.02,.72,.58-.41,7.27-.74,8.68-.33,1.41-3.98,10.28-4.31,13.07-.33,2.79-.69,4.28-.53,5.13,.16,.85,.16,1.77-.53,1.9-.65,.12-1.06,.33-1.57,1.51,35.09-10.78,60.6-43.43,60.6-82.05Z"/>
      <path class="cls-2" d="M112.63,166.36c.69-.13,.69-1.05,.53-1.9-.16-.85,.2-2.34,.53-5.13,.33-2.79,3.98-11.66,4.31-13.07,.33-1.41,1.46-8.1,.74-8.68-.19-.15-.74-.08-1.56-.02-.82,.07-1.51-.33-2.07-.56s-2.99-2.3-4.79-3.78c-1.81-1.48-2.13-3.87-2.13-3.87,0,0-.46-1.71,2.3-4.2,2.76-2.49,4.27-5.12,4.99-8.83s-.92-7.32-.92-7.32c0,0-.36-.89,3.25-.07,3.61,.82,4.27,.23,5.58-.53,1.15-.66,3.69-4.21,4.3-5.06,.05-.08,0-.18-.1-.18-.28,.01-.87,.03-2.04,.05-1.87,.03-5.68,.13-7.78,.49-1.86,.32-4.08,1.69-4.56,2-.05,.03-.12,.02-.15-.04-.18-.32-.76-1.33-1.41-1.83-1.21-.91-2.02-1.26-5.44-1.79-3.13-.49-5.4-.22-6.81-.06-1.41,.16-3.15,.79-4.48,.79s-1.89-.33-3.76-.82c-1.87-.49-5.78-1.25-7.35-1.44-1.58-.2-5.58-.23-6.24-.26-.66-.03-3.15-.43-4.17-.59-1.02-.16-2.46-.16-4.4-.36s-3.41-2.63-3.25-5.02c.16-2.4,1.26-6.26,1.94-8.27,.3-.9,1.08-2.95,2.63-2.72,1.54,.23,8.67,2.36,10.18,2.5,1.48,.13,2.83-.87,2.89-.92,0,0,0,0,0,0,.04-.04,.77-.87,.23-1.71-.56-.85-6.37-8.27-9-9.72-2.63-1.44-.3-2.1,1.94-2.69,2.23-.59,1.9-1.48,2.95-1.54,1.05-.07,2.72-.07,5.06-.85,2.33-.79,2.3-2.79,2.66-3.04,.61-.42,1.37-.53,2.72-1.72,2.76-2.43,2.92-3.48,3.81-6.14,.89-2.66,2.23-9.03-.49-12.41-2.32-2.88-2.57-7.27-2.6-8.52,0-.11-.14-.15-.21-.06-.23,.33-.63,.99-1.17,2.08-.85,1.74-.76,3.61,.26,6.37,1.02,2.76,1.46,4.58,.98,7.52-.55,3.45-2.03,5.99-2.6,6.86-.06,.09-.21,.05-.2-.06,.01-.38,.02-1.06-.02-2.13-.07-1.84-1.02-3.87-2-7.29-.98-3.41,.12-4.98,.68-6.61,.06-.18,.06-.48,.01-.41-.23,.32-.39,.48-.72,.76-.74,.61-4.76,5.91-3.41,9.29,1.35,3.38,1.35,5.88,1.18,7.52-.16,1.64-1.35,3.94-1.74,4.33-.33,.33-1.77,.68-2.24,.79-.07,.02-.15-.04-.13-.12,.18-.99,.3-2.03-.02-3.49-.29-1.3-1.38-2.38-1.71-2.68-.03-.03-.08,0-.07,.04,.06,.36,.2,1.54-.02,3.65-.31,2.85-1.26,3.68-1.72,4.05-.01,.01-.03,.02-.04,.03l-3.08,1.12s-.05,0-.08,0c-.52-.22-5.99-2.5-7.05-3.27-.62-.45-.7-2.59-.64-4.46,.03-.87,.26-2.37,.34-2.87,0-.04-.05-.07-.08-.03-.25,.32-.9,1.12-1.05,1.31-.3,.38-.62,.72-1.08,1.7-.57,1.2-.35,2.67-.24,3.18,.02,.08-.06,.15-.14,.12-.85-.31-4.36-1.64-5.09-2.43-1.48-1.61-.2-6.47-.46-10.37-.26-3.91-4.17-6.4-3.97-5.94,.2,.46,.84,3.2,.92,6.99,.04,1.92-1.01,5.89-1.24,6.69-.02,.07-.1,.1-.17,.06l-.37-.22c-.49-.3-2.27-2.1-3.5-5.61-1.23-3.51,.15-5.81,1.2-9.55,.91-3.25-1.71-7.36-2.42-8.39-.06-.09-.2-.04-.2,.07-.01,.71,.33,1.56,.33,3.53,0,2.27-2.51,6.55-3.25,8.37s-.59,5.91,.94,9.85,4.63,5.81,6.25,6.8c1.62,.98,1.45,1.35,2.51,2.76,1.03,1.37,3.15,1.63,5.56,1.87s4.09,2.02,4.83,3,.68,1.22,.67,1.98c0,.3-.09,1.72-.9,.68-.78-.99-1.46-2.1-2.35-3.09-.94-1.03-1.71-1.49-3.44-1.15-1.45,.29-3.97-.45-4.74-.69-.09-.03-.17,.06-.14,.15,.2,.46,.7,1.58,1.37,2.67,.89,1.43,1.68,3.46,4.09,3.84,.77,.12,1.99,.33,3.03,.14,1.03-.2,1.57,.72,1.24,1.3-.27,.48-1.49,1.12-3.86,3.86-2.59,3.01-6.45,10.74-7.93,17.63-1.48,6.89,.25,15.99,1.17,18.98,.86,2.79,3.16,4.7,3.45,4.93,.02,.02,.03,.04,.04,.07,.02,.13,.04,.59-.2,1.57-.3,1.18-1.81,4.19-3.09,6.56-1.28,2.36-3.71,5.95-3.05,7,.66,1.05,2.94,4.54,3.6,5.53,.66,.98,3.96,6.43,4.36,6.92,.39,.49,1.69,1.24,2.49,1.67,.91,.49,1.64,.91,2.18,1.32,.26,.2,3.27,1.9,4.03,2.33,.06,.04,.14-.02,.12-.09-.18-.69-.82-3.05-1.13-3.58-.15-.26-1.68-1.64-2.8-1.65-1.36-.02-1.26-.74-1.24-1.01,.03-.33,.05-.7-.49-1.23-.5-.48-1.01-.53-1.44-.89-.24-.2-.76-.73-1.58-1.72-.82-.98-3.83-6.51-4.06-7.17-.23-.66,.23-1.15,1.81-1.87,2.22-1.02,4.97-3.3,6.01-4.73,2.56-3.53,2.17-4.09,2.45-4.02,.91,.23,1.75,.38,3.53,.43,2.13,.05,2.82-.43,2.84,.16,.02,.53,.05,.85,.35,3.96,.45,4.79,.16,32.13,.16,30.9,0,.46-.46,1.58-.62,2.07-.16,.49,.1,1.28-.13,1.67-.14,.24-1.25,1.88-2.12,3.17,1.28,.27,2.58,.5,3.89,.71,.37-.72,.75-1.69,.83-1.91,.13-.36,.04-.97,.1-1.94,.06-.88,.39-.87,.79-1.23,.39-.36,.36-.81,.23-1.69-.13-.91-.1-3.45-.1-4.86s1.41-14.93,1.48-15.65-.16-1.51,.33-2.23c.49-.72,.53-1.25,.66-1.81,.13-.56-.49-2.3-.26-3.58,.21-1.2,1.72-7.15,1.92-7.7,.01-.04,.04-.06,.08-.07,.24-.03,1.18-.15,2.5-.49,1.36-.35,4.73-1.34,5.49-1.56,.07-.02,.15,.04,.14,.11-.02,.22-.04,.72-.08,1.88-.07,1.87,.85,6.27,1.08,7.62,.23,1.35,.56,2.33,1.94,2.43,1.38,.1,5.38,1.71,6.7,2.46,1.31,.76,2.89,2.99,2.2,4.99-.69,2-6.64,16.32-7.17,17.08-.53,.76-1.05,1.97-1.05,2.82s-.2,1.38-.59,2c-.32,.51-2.09,3.34-2.72,4.36-.01,.02-.01,.04-.02,.07,1.69-.01,3.37-.08,5.03-.19,.13-.18,.25-.4,.34-.66,.54-1.59,.79-2.86,.76-3.25-.03-.39,.03-1.21,.39-1.77,.36-.56,.69-.51,.84-.94,.16-.45,.04-.69-.02-1.26-.05-.53,.26-.89,1.28-2.92,1.12-2.24,8.19-14.51,9-15.96,.92-1.64,1.15-2.62,.81-3.16-.32-.51-.87-.15-1.86-.61-.79-.37-1.31-2.04-1.48-2.68-.03-.09,.07-.17,.16-.13,.62,.33,2.45,1.3,4.24,2.21,2.04,1.03,5.31,1.56,5.79,1.63,.04,0,.07,.03,.08,.07,.08,.21,.36,1.02,.8,3.06,.53,2.43-1.75,12.06-2.18,14.13-.43,2.07-1.58,4.17-1.81,4.76s-.23,1.44-.2,1.77-.3,.89-1.35,2.3c-.24,.32-.56,.73-.92,1.16,1.64-.4,3.26-.83,4.86-1.32,.51-1.18,.93-1.39,1.57-1.51Zm7.92-59.7c1.28-.31,3.67-1.29,4.53-1.66,.07-.03,.13,.05,.08,.11-.43,.58-2.09,2.79-3.58,3.05-1.84,.33-5.81-.49-6.47-.75-.66-.26,4.35-.48,5.43-.74Zm-58.6-32.81c-.73,.29-2,.16-2.57-.18-.59-.34-1.43-1.67-1.11-1.77,.32-.1,2.27-.05,2.73,.27,.41,.28,.87,1.31,.98,1.58,.02,.04,0,.08-.04,.09Zm7.79,2.44c.33-.15,1.71,.21,3.15,.89,1.11,.52,1.77,1.32,1.38,1.77-.34,.39-1.31,.05-2.61-.64-.79-.42-2.23-1.88-1.92-2.02Zm-.96,47.73c-1.51,.13-3.7-.06-7.11-1.08-4.14-1.24-6.75-7.27-7.46-13.37-1.12-9.62,2.59-19.99,5.7-24.43,2.44-3.47,6.42-4.92,10.44-4.4,2.38,.31,6.09,2.5,7.4,3.31,.09,.05,.03,.19-.07,.16-1.09-.28-3.68-.94-6.41-1.63-3.61-.92-4.01,.07-5.97,2.82-1.97,2.76-2.97,6.43-2.89,12.87,.1,7.45,2.65,10.2,4.11,13.83,1.83,4.56,2.62,6.69,3.03,8.67,.57,2.73,.75,3.11-.76,3.24Zm25.34-7.16c-.59,1.77-1.31,3.28-1.84,3.94s-5.31,2.4-6.75,2.84c-.79,.24-6.45,2.36-6.53,1.61-.06-.58,1.65-3.25,3.55-4.45,4.08-2.57,6.12-3.87,8.62-4.79,2.5-.92,3.55-.92,2.95,.85Z"/>
    </g>
  </g>
</svg>