<?xml version="1.0" encoding="UTF-8"?>
<svg id="Layer_2" data-name="Layer 2" xmlns="http://www.w3.org/2000/svg" xmlns:xlink="http://www.w3.org/1999/xlink" viewBox="0 0 426.64 215.32">
  <defs>
    <style>
      .cls-1 {
        clip-path: url(#clippath);
      }

      .cls-2 {
        fill: none;
      }

      .cls-2, .cls-3, .cls-4, .cls-5, .cls-6, .cls-7, .cls-8, .cls-9, .cls-10, .cls-11, .cls-12, .cls-13 {
        stroke-width: 0px;
      }

      .cls-3 {
        fill: url(#linear-gradient);
      }

      .cls-4 {
        fill: url(#New_Gradient_Swatch_copy_9);
      }

      .cls-5 {
        fill: url(#New_Gradient_Swatch_copy_8);
      }

      .cls-6 {
        fill: url(#New_Gradient_Swatch_copy_6);
      }

      .cls-7 {
        fill: url(#New_Gradient_Swatch_copy_7);
      }

      .cls-8 {
        fill: url(#linear-gradient-3);
        fill-rule: evenodd;
      }

      .cls-9 {
        fill: #f9f9f9;
      }

      .cls-10 {
        fill: url(#linear-gradient-4);
      }

      .cls-11 {
        fill: url(#linear-gradient-2);
      }

      .cls-12 {
        fill: url(#linear-gradient-5);
      }

      .cls-13 {
        fill: url(#New_Gradient_Swatch_copy_10);
      }
    </style>
    <clipPath id="clippath">
      <path class="cls-2" d="M373.42,72.18c-1.98.03-6,.14-8.22.52-1.96.34-4.31,1.79-4.82,2.12-.06.04-.13.02-.16-.04-.19-.34-.8-1.4-1.5-1.93-1.28-.96-2.13-1.33-5.75-1.89-3.31-.52-5.71-.23-7.2-.06-1.49.17-3.33.83-4.73.83s-2-.35-3.98-.87c-1.98-.52-6.11-1.32-7.77-1.53-1.67-.21-5.9-.24-6.59-.28s-3.33-.45-4.41-.62c-1.08-.17-2.6-.17-4.65-.38-2.05-.21-3.61-2.78-3.44-5.31.17-2.53,1.34-6.61,2.05-8.74.32-.95,1.15-3.12,2.78-2.88s9.16,2.5,10.76,2.64,2.99-.92,3.05-.97h0s.82-.93.24-1.81-6.73-8.74-9.51-10.27c-2.78-1.53-.31-2.22,2.05-2.85,2.36-.62,2.01-1.56,3.12-1.63,1.11-.07,2.88-.07,5.34-.9s2.43-2.95,2.81-3.21c.65-.44,1.45-.56,2.88-1.82,2.91-2.57,3.09-3.68,4.03-6.49.94-2.81,2.36-9.54-.52-13.12-2.45-3.04-2.72-7.68-2.74-9.01,0-.12-.15-.16-.22-.07-.24.35-.67,1.04-1.24,2.2-.9,1.84-.8,3.82.28,6.73,1.08,2.91,1.54,4.84,1.04,7.95-.58,3.64-2.15,6.33-2.75,7.25-.06.1-.22.05-.22-.07.01-.4.02-1.12-.02-2.26-.07-1.94-1.08-4.09-2.12-7.7-1.04-3.61.13-5.27.71-6.99.07-.19.07-.51.02-.43-.24.34-.41.51-.76.8-.79.64-5.03,6.25-3.61,9.82,1.42,3.57,1.42,6.21,1.25,7.95-.17,1.74-1.42,4.16-1.84,4.58-.35.35-1.87.72-2.37.83-.08.02-.16-.05-.14-.13.19-1.04.32-2.15-.02-3.69-.31-1.37-1.45-2.52-1.81-2.83-.03-.03-.08,0-.07.04.07.38.22,1.62-.03,3.86-.33,3.01-1.33,3.89-1.82,4.28-.01.01-.03.02-.05.03l-3.26,1.19s-.06.01-.09,0c-.55-.23-6.33-2.64-7.45-3.45-.66-.48-.74-2.74-.67-4.72.03-.92.28-2.51.36-3.03,0-.05-.05-.07-.08-.04-.27.33-.95,1.18-1.11,1.39-.32.4-.66.76-1.15,1.8-.6,1.27-.36,2.82-.25,3.36.02.09-.07.16-.15.13-.9-.33-4.6-1.73-5.38-2.57-1.56-1.7-.21-6.84-.49-10.97-.28-4.13-4.41-6.77-4.2-6.28.21.49.88,3.38.97,7.39.04,2.03-1.07,6.23-1.31,7.07-.02.08-.11.11-.18.07l-.39-.23c-.52-.31-2.39-2.22-3.7-5.93-1.3-3.71.16-6.14,1.27-10.1.96-3.43-1.81-7.78-2.56-8.87-.07-.1-.21-.05-.21.07-.01.75.34,1.65.34,3.73,0,2.39-2.65,6.92-3.44,8.85-.78,1.93-.62,6.25.99,10.41,1.61,4.16,4.89,6.14,6.61,7.18,1.72,1.04,1.54,1.43,2.65,2.91s3.33,1.72,5.88,1.98c2.55.26,4.32,2.13,5.1,3.18.78,1.04.72,1.29.71,2.1,0,.32-.1,1.82-.96.72s-1.54-2.22-2.48-3.26c-.99-1.09-1.81-1.58-3.63-1.21-1.53.31-4.2-.47-5.01-.73-.1-.03-.18.06-.14.16.21.49.74,1.67,1.45,2.82.94,1.51,1.78,3.65,4.32,4.06.81.13,2.11.35,3.2.14s1.66.76,1.31,1.37c-.29.5-1.58,1.18-4.07,4.08-2.74,3.18-6.82,11.35-8.38,18.63-1.56,7.29.26,16.9,1.23,20.06.91,2.95,3.34,4.97,3.65,5.21.02.02.04.04.04.07.02.14.04.63-.22,1.66-.31,1.25-1.91,4.43-3.27,6.93-1.35,2.5-3.92,6.29-3.22,7.4.69,1.11,3.11,4.8,3.8,5.84.69,1.04,4.19,6.79,4.61,7.31.42.52,1.79,1.32,2.63,1.77.96.52,1.74.97,2.3,1.39.27.21,3.46,2.01,4.26,2.47.07.04.15-.02.13-.1-.19-.73-.86-3.22-1.2-3.78-.16-.28-1.77-1.73-2.96-1.74-1.44-.02-1.33-.78-1.31-1.07.03-.34.05-.74-.52-1.3-.52-.51-1.06-.56-1.52-.95-.25-.21-.8-.77-1.67-1.81s-4.05-6.89-4.29-7.58c-.24-.69.24-1.22,1.91-1.98,2.35-1.08,5.25-3.49,6.35-5,2.71-3.73,2.3-4.32,2.59-4.25.96.25,1.85.4,3.73.45,2.25.06,2.98-.45,3,.16.02.56.05.89.37,4.19.48,5.07.17,33.96.17,32.66,0,.49-.49,1.67-.66,2.19-.17.52.1,1.35-.14,1.77-.21.37-2.67,3.97-3.24,4.82-.05.08,0,.18.09.18.8,0,3.57,0,4.36-.04.42-.02,1.39-2.5,1.53-2.88s.04-1.02.1-2.05c.06-.93.42-.92.83-1.3.42-.38.38-.86.24-1.79s-.1-3.64-.1-5.14,1.49-15.78,1.56-16.54c.07-.76-.17-1.6.35-2.36.52-.76.56-1.32.69-1.91s-.52-2.43-.28-3.78c.23-1.26,1.82-7.56,2.03-8.14.01-.04.05-.07.09-.07.26-.03,1.25-.16,2.64-.51s5-1.41,5.8-1.65c.08-.02.15.04.15.12-.02.23-.05.76-.09,1.98-.07,1.98.9,6.63,1.15,8.05.24,1.42.59,2.46,2.05,2.57,1.46.1,5.69,1.8,7.08,2.6,1.39.8,3.05,3.16,2.32,5.27-.73,2.12-7.02,17.25-7.57,18.05-.56.8-1.11,2.08-1.11,2.98s-.21,1.46-.62,2.12c-.34.54-2.2,3.53-2.88,4.61-.11.17.01.4.22.4l4.19.11c.17,0,.34-.05.47-.17.23-.2.59-.59.78-1.17.57-1.68.83-3.02.8-3.44s.03-1.28.42-1.87.73-.54.88-.99c.16-.47.04-.73-.02-1.34-.05-.56.28-.94,1.35-3.09,1.18-2.37,8.66-15.34,9.52-16.87.97-1.74,1.21-2.77.85-3.34-.34-.54-.92-.16-1.96-.65-.84-.39-1.38-2.16-1.57-2.83-.03-.1.08-.18.17-.13.66.35,2.59,1.38,4.48,2.34,2.15,1.09,5.62,1.65,6.12,1.73.04,0,.07.03.08.07.08.22.38,1.08.84,3.24.56,2.57-1.85,12.75-2.3,14.94-.45,2.19-1.67,4.41-1.91,5.03-.24.62-.24,1.53-.21,1.87.03.35-.31.94-1.42,2.43-.85,1.15-2.71,3.28-3.52,4.21-.15.17-.03.45.2.44,1.22-.02,3.93-.05,4.54-.07.71-.02,2.02-2.49,2.83-4.52.59-1.47,1.04-1.7,1.77-1.84s.73-1.11.56-2.01c-.17-.9.21-2.47.56-5.42.35-2.95,4.21-12.32,4.56-13.82.35-1.49,1.54-8.57.78-9.18-.2-.16-.78-.09-1.65-.02s-1.6-.35-2.19-.59-3.16-2.43-5.07-3.99c-1.91-1.56-2.26-4.09-2.26-4.09,0,0-.49-1.8,2.43-4.44,2.91-2.64,4.51-5.41,5.27-9.33.76-3.92-.97-7.74-.97-7.74,0,0-.38-.94,3.44-.07,3.82.87,4.51.24,5.9-.56,1.22-.7,3.9-4.44,4.55-5.35.06-.08,0-.19-.1-.19-.3.01-.92.03-2.15.06ZM303.49,40.96c-.62-.36-1.51-1.77-1.17-1.87s2.39-.05,2.89.29c.43.29.92,1.39,1.04,1.68.02.04,0,.08-.04.1-.77.3-2.11.17-2.72-.19ZM314.44,43.72c.35-.15,1.8.23,3.33.94,1.18.55,1.87,1.4,1.46,1.87-.36.42-1.39.05-2.76-.68-.83-.44-2.36-1.99-2.03-2.13ZM313.42,94.18c-1.6.14-3.91-.06-7.52-1.14-4.37-1.31-7.14-7.68-7.89-14.13-1.18-10.17,2.73-21.13,6.03-25.82,2.58-3.67,6.79-5.21,11.03-4.65,2.52.33,6.44,2.64,7.82,3.5.09.06.03.2-.07.17-1.16-.29-3.89-.99-6.78-1.73-3.82-.97-4.23.07-6.32,2.98-2.08,2.91-3.14,6.8-3.05,13.6.1,7.88,2.8,10.78,4.34,14.62,1.93,4.81,2.77,7.07,3.2,9.16.6,2.89.79,3.29-.81,3.43ZM340.21,86.62c-.62,1.87-1.39,3.47-1.94,4.16-.56.69-5.62,2.54-7.13,3-.83.25-6.82,2.5-6.91,1.7-.07-.61,1.74-3.44,3.75-4.7,4.31-2.72,6.47-4.09,9.11-5.07,2.64-.97,3.75-.97,3.12.9ZM369.24,77.4c-1.94.35-6.14-.51-6.83-.79-.69-.28,4.6-.51,5.74-.79,1.35-.33,3.88-1.36,4.79-1.76.07-.03.13.05.09.11-.45.61-2.21,2.95-3.78,3.23Z"/>
    </clipPath>
    <linearGradient id="New_Gradient_Swatch_copy_10" data-name="New Gradient Swatch copy 10" x1="303.35" y1="94.56" x2="358.58" y2="149.79" gradientUnits="userSpaceOnUse">
      <stop offset="0" stop-color="#fff" stop-opacity=".4"/>
      <stop offset=".5" stop-color="#5cc9de" stop-opacity=".85"/>
      <stop offset="1" stop-color="#238ca7"/>
    </linearGradient>
    <linearGradient id="New_Gradient_Swatch_copy_9" data-name="New Gradient Swatch copy 9" x1="293.23" y1="-3.35" x2="342.07" y2="45.49" gradientUnits="userSpaceOnUse">
      <stop offset="0" stop-color="#fcffd1" stop-opacity=".47"/>
      <stop offset=".62" stop-color="#ff8ba6" stop-opacity=".85"/>
      <stop offset="1" stop-color="#ff5a96"/>
    </linearGradient>
    <linearGradient id="New_Gradient_Swatch_copy_8" data-name="New Gradient Swatch copy 8" x1="334.92" y1="54.74" x2="368.68" y2="88.5" gradientUnits="userSpaceOnUse">
      <stop offset="0" stop-color="#fff" stop-opacity=".6"/>
      <stop offset=".5" stop-color="#87bcf2" stop-opacity=".85"/>
      <stop offset="1" stop-color="#0391b7"/>
    </linearGradient>
    <linearGradient id="New_Gradient_Swatch_copy_7" data-name="New Gradient Swatch copy 7" x1="275.75" y1="59.03" x2="308.46" y2="91.74" gradientUnits="userSpaceOnUse">
      <stop offset="0" stop-color="#a1cfff" stop-opacity=".9"/>
      <stop offset=".5" stop-color="#aab3e3" stop-opacity=".85"/>
      <stop offset="1" stop-color="#ff88a5"/>
    </linearGradient>
    <linearGradient id="linear-gradient" x1="298.88" y1="53.84" x2="331.58" y2="86.54" gradientUnits="userSpaceOnUse">
      <stop offset="0" stop-color="#fff" stop-opacity=".9"/>
      <stop offset=".5" stop-color="#ffb251" stop-opacity=".7"/>
      <stop offset="1" stop-color="#fe87b8"/>
    </linearGradient>
    <linearGradient id="New_Gradient_Swatch_copy_6" data-name="New Gradient Swatch copy 6" x1="531.7" y1="187.96" x2="581.62" y2="237.88" gradientTransform="translate(-232.86 216.32) rotate(-30)" gradientUnits="userSpaceOnUse">
      <stop offset="0" stop-color="#fff" stop-opacity=".47"/>
      <stop offset=".5" stop-color="#8887f2" stop-opacity=".85"/>
      <stop offset="1" stop-color="#3a03b7"/>
    </linearGradient>
    <linearGradient id="linear-gradient-2" x1="289.61" y1="2.2" x2="322.32" y2="34.9" gradientUnits="userSpaceOnUse">
      <stop offset="0" stop-color="#ffff90" stop-opacity=".47"/>
      <stop offset=".62" stop-color="#ff8ba6" stop-opacity=".85"/>
      <stop offset="1" stop-color="#ff5a96"/>
    </linearGradient>
    <linearGradient id="linear-gradient-3" x1="958.12" y1="1138.99" x2="990.83" y2="1171.69" gradientTransform="translate(-818.99 994.66) rotate(-90)" gradientUnits="userSpaceOnUse">
      <stop offset="0" stop-color="#fff" stop-opacity=".47"/>
      <stop offset=".5" stop-color="#8887f2" stop-opacity=".85"/>
      <stop offset="1" stop-color="#3a03b7"/>
    </linearGradient>
    <linearGradient id="linear-gradient-4" x1="340.32" y1="-5.06" x2="374.07" y2="28.69" gradientUnits="userSpaceOnUse">
      <stop offset="0" stop-color="#fff" stop-opacity=".6"/>
      <stop offset=".5" stop-color="#87bcf2" stop-opacity=".85"/>
      <stop offset="1" stop-color="#0391b7"/>
    </linearGradient>
    <linearGradient id="linear-gradient-5" x1="-910.84" y1="1636.71" x2="-878.13" y2="1669.42" gradientTransform="translate(734.36 1925.82) rotate(137.97)" xlink:href="#linear-gradient-2"/>
  </defs>
  <g id="artboard_5" data-name="artboard 5">
    <g id="_outlined_inverted_" data-name="&amp;lt;outlined inverted&amp;gt;">
      <path class="cls-9" d="M420.07,159.49c0-1.81,1.48-3.27,3.29-3.27s3.27,1.47,3.27,3.27-1.47,3.29-3.27,3.29-3.29-1.48-3.29-3.29ZM426.23,159.49c0-1.59-1.27-2.87-2.87-2.87s-2.88,1.27-2.88,2.87,1.28,2.88,2.88,2.88,2.87-1.27,2.87-2.88ZM424.97,161.36h-.53l-1.03-1.65h-.84v1.65h-.41v-3.59h1.57c.95,0,1.27.36,1.27.95,0,.7-.49.97-1.13.98l1.09,1.65ZM423.28,159.3c.51,0,1.32.08,1.32-.59,0-.47-.53-.53-.97-.53h-1.06v1.12h.7Z"/>
      <g>
        <path class="cls-9" d="M205.7,172.9c-2.99-3.26-6.58-5.09-11.06-5.09-7.4,0-12.96,6.31-12.96,13.44s5.5,13.57,12.9,13.57c4.48,0,8.69-2.17,11.54-5.63v4.14c-3.19,2.78-7.19,4.34-11.4,4.34-9.3,0-16.08-7.26-16.08-16.42s6.92-16.29,16.15-16.29c4.07,0,7.8,1.22,10.93,3.87v4.07Z"/>
        <path class="cls-9" d="M217.1,169.71h.14c1.22-2.85,3.46-4.75,6.79-4.75,1.22,0,2.24.27,3.33.75l-1.63,2.71c-.75-.41-1.36-.61-2.17-.61-6.85,0-6.45,8.55-6.45,13.17v16.02h-3.05v-31.36h3.05v4.07Z"/>
        <path class="cls-9" d="M232.91,181.59c-.2,7.94,5.29,13.23,12.56,13.23,4.89,0,8.82-2.92,11.06-7.13l2.58,1.49c-2.85,5.43-7.87,8.48-14.05,8.48-9.3,0-15.2-7.53-15.2-16.42s6.04-16.29,15.2-16.29,15.13,7.6,15.07,16.63h-27.22ZM257.07,178.74c-.75-5.77-5.5-10.93-11.95-10.93s-11.67,5.02-12.22,10.93h24.16Z"/>
        <path class="cls-9" d="M295.08,196.99h-3.05v-5.63h-.14c-2.31,4-7.33,6.31-11.95,6.31-9.5,0-15.47-7.4-15.47-16.56s5.9-16.15,15.34-16.15c4.82,0,9.43,2.17,12.08,6.11h.14v-5.43h3.05v31.36ZM267.52,181.11c0,7.19,4.75,13.71,12.35,13.71,8.01,0,12.35-6.52,12.35-14.05s-4.96-12.96-12.56-12.96c-7.19,0-12.15,6.52-12.15,13.3Z"/>
        <path class="cls-9" d="M308.92,196.99h-3.05v-28.51h-3.46v-2.85h3.46v-11.2h3.05v11.2h5.5v2.85h-5.5v28.51Z"/>
        <path class="cls-9" d="M325.21,155.19c0,1.56-1.22,2.78-2.78,2.78s-2.78-1.22-2.78-2.78,1.22-2.78,2.78-2.78,2.78,1.29,2.78,2.78ZM323.92,196.99h-3.05v-31.36h3.05v31.36Z"/>
        <path class="cls-9" d="M345.16,191.5l11.13-25.86h3.12l-14.32,33.05-14.39-33.05h3.12l11.33,25.86Z"/>
        <path class="cls-9" d="M370.47,155.19c0,1.56-1.22,2.78-2.78,2.78s-2.78-1.22-2.78-2.78,1.22-2.78,2.78-2.78,2.78,1.29,2.78,2.78ZM369.19,196.99h-3.05v-31.36h3.05v31.36Z"/>
        <path class="cls-9" d="M384.25,196.99h-3.05v-28.51h-3.46v-2.85h3.46v-11.2h3.05v11.2h5.5v2.85h-5.5v28.51Z"/>
        <path class="cls-9" d="M388.39,165.64h3.19l13.37,28.37,12.01-28.37h3.12l-21.04,49.68h-3.12l7.53-17.78-15.07-31.9Z"/>
      </g>
      <g>
        <path class="cls-9" d="M32.24,155.54c0,10.93-3.12,18.8-15.47,18.8-8.82,0-15.2-5.43-15.34-14.39h6.11c0,5.7,3.94,8.96,9.5,8.96,7.53,0,9.09-5.16,9.09-11.67v-6.04h-.14c-2.44,3.6-6.31,6.04-10.79,6.04-9.77,0-15.2-8.08-15.2-17.17s5.77-16.63,14.93-16.63c4.75,0,8.55,2.44,11.06,6.38h.14v-5.43h6.11v31.15ZM26.47,140.27c0-6.18-3.73-11.4-10.32-11.4s-10.04,5.5-10.04,11.4,3.6,11.54,10.04,11.54,10.32-5.29,10.32-11.54Z"/>
        <path class="cls-9" d="M71.26,140.33c0,9.57-7.47,16.9-16.97,16.9s-16.97-7.33-16.97-16.9,7.47-16.9,16.97-16.9,16.97,7.33,16.97,16.9ZM43.43,140.33c0,5.97,4.82,11.06,10.86,11.06s10.86-5.09,10.86-11.06-4.82-11.06-10.86-11.06-10.86,5.02-10.86,11.06Z"/>
        <path class="cls-9" d="M77.84,100.15h3.05v30.07h.14c2.65-3.94,7.26-6.11,12.08-6.11,9.37,0,15.34,6.99,15.34,16.15s-5.97,16.56-15.47,16.56c-4.62,0-9.64-2.31-11.95-6.31h-.14v5.63h-3.05v-55.99ZM105.4,140.27c0-6.85-4.95-13.3-12.22-13.3-7.94,0-12.49,5.9-12.49,13.37s4.62,13.64,12.35,13.64,12.35-6.52,12.35-13.71Z"/>
        <path class="cls-9" d="M115.85,140.74c-.2,7.94,5.29,13.23,12.56,13.23,4.89,0,8.82-2.92,11.06-7.13l2.58,1.49c-2.85,5.43-7.87,8.48-14.05,8.48-9.3,0-15.2-7.53-15.2-16.42s6.04-16.29,15.2-16.29,15.14,7.6,15.07,16.63h-27.22ZM140.01,137.89c-.75-5.77-5.5-10.93-11.95-10.93s-11.67,5.02-12.22,10.93h24.16Z"/>
        <path class="cls-9" d="M144.76,124.79h3.19l13.37,28.37,12.01-28.37h3.12l-21.04,49.68h-3.12l7.53-17.78-15.07-31.9Z"/>
        <path class="cls-9" d="M211.4,140.47c0,9.3-7.26,16.36-16.49,16.36s-16.29-7.4-16.29-16.29,7.19-16.42,16.29-16.42,16.49,7.06,16.49,16.36ZM181.67,140.54c0,7.13,5.63,13.44,13.03,13.44s13.64-5.84,13.64-13.44-5.91-13.57-13.64-13.57-13.03,6.31-13.03,13.57Z"/>
        <path class="cls-9" d="M221.85,129.68h.14c1.83-3.46,5.23-5.57,9.3-5.57,8.08,0,10.32,5.02,10.32,13.1v18.94h-3.05v-18.94c0-5.63-.68-10.25-7.53-10.25-7.87,0-9.16,7.33-9.16,13.71v15.47h-3.05v-31.36h3.05v4.89Z"/>
        <path class="cls-9" d="M276.55,150.52h-.14c-2.31,4-7.33,6.31-11.95,6.31-9.5,0-15.47-7.4-15.47-16.56s5.91-16.15,15.34-16.15c4.82,0,9.43,2.17,12.08,6.11h.14v-30.07h3.05v55.99h-3.05v-5.63ZM276.75,139.93c0-7.26-4.96-12.96-12.56-12.96-7.19,0-12.15,6.52-12.15,13.3,0,7.19,4.75,13.71,12.35,13.71,8.01,0,12.35-6.52,12.35-14.05Z"/>
      </g>
      <g id="stag_group" data-name="stag group">
        <g class="cls-1">
          <circle id="bu_Ellipse_" data-name="bu &amp;lt;Ellipse&amp;gt;" class="cls-13" cx="330.96" cy="122.18" r="39.05"/>
          <circle class="cls-4" cx="317.65" cy="21.07" r="34.53"/>
          <circle class="cls-5" cx="351.8" cy="71.62" r="23.87"/>
          <circle class="cls-7" cx="292.1" cy="75.38" r="23.13"/>
          <circle class="cls-3" cx="315.23" cy="70.19" r="23.13"/>
          <circle class="cls-6" cx="355.68" cy="122.38" r="35.3"/>
          <circle class="cls-11" cx="305.97" cy="18.55" r="23.13"/>
          <path id="_Ellipse_" data-name="&amp;lt;Ellipse&amp;gt;" class="cls-8" d="M336.35-2.94c12.77,0,23.13,10.35,23.13,23.13s-10.35,23.13-23.13,23.13c-12.77,0-23.13-10.35-23.13-23.13s10.35-23.13,23.13-23.13Z"/>
          <circle class="cls-10" cx="357.2" cy="11.82" r="23.87"/>
          <circle class="cls-12" cx="292.1" cy="99.04" r="23.13"/>
        </g>
      </g>
    </g>
  </g>
</svg>